<svg width="171" height="80" viewBox="0 0 171 80" fill="none" xmlns="http://www.w3.org/2000/svg">
<path d="M91.4968 12.4032C96.3005 12.4032 98.7024 14.96 98.7024 20.0737V42.3296C98.7024 47.4432 96.3005 50 91.4968 50H76.5627V12.4032H91.4968ZM90.5671 43.2593V19.0858C90.5671 18.7759 90.4508 18.5047 90.2184 18.2723C90.0247 18.0398 89.7729 17.9236 89.463 17.9236H84.698V44.4215H89.463C89.7729 44.4215 90.0247 44.3053 90.2184 44.0728C90.4508 43.8404 90.5671 43.5692 90.5671 43.2593ZM119.7 11.8221C124.504 11.8221 126.906 14.3789 126.906 19.4926V50H118.771V37.3903H112.901V50H104.766V19.4926C104.766 14.3789 107.168 11.8221 111.972 11.8221H119.7ZM112.901 31.1144H118.771V18.5047C118.771 18.1948 118.654 17.9236 118.422 17.6912C118.228 17.4587 117.976 17.3425 117.666 17.3425H114.006C113.696 17.3425 113.424 17.4587 113.192 17.6912C112.998 17.9236 112.901 18.1948 112.901 18.5047V31.1144ZM154.761 12.4032L146.683 36.2862V50H138.548V36.2862L130.471 12.4032H138.141L142.616 28.0928L147.09 12.4032H154.761Z" fill="#FFFBFB"/>
<path d="M69.4322 29H65.4957V13.9009C65.4957 13.751 65.4395 13.6198 65.327 13.5073C65.2333 13.3948 65.1115 13.3386 64.9615 13.3386H63.4432C63.2932 13.3386 63.162 13.3948 63.0495 13.5073C62.9558 13.6198 62.9089 13.751 62.9089 13.9009V29H58.9725V14.2384C58.9725 11.764 60.1347 10.5269 62.459 10.5269H65.9456C68.27 10.5269 69.4322 11.764 69.4322 14.2384V29Z" fill="#FFB701"/>
<path d="M63.09 55.0882H68.0581V58.8063H58.6026V38.0683H68.0581V41.7223H63.09V46.5943H67.7376V50.1201H63.09V55.0882Z" fill="#FFB701"/>
<path d="M29.2093 63.3054C14.7875 63.2329 3.30002 53.209 1.61271 39.5123C1.12455 35.539 1.12456 35.539 5.20488 35.5597C6.25547 35.5649 7.31136 35.5649 8.36195 35.5597C9.07296 35.5545 9.60356 35.8446 9.68315 36.5543C9.76805 37.3003 9.22153 37.7665 8.56358 37.7044C6.08568 37.4713 6.47832 38.844 6.77015 40.4033C8.56889 49.9299 16.443 57.146 26.3281 58.3479C27.5432 58.4929 27.9305 58.1199 27.8987 57.0476C27.8721 56.198 27.9942 55.3537 29.0978 55.4158C30.175 55.478 30.2439 56.3949 30.175 57.1927C30.0795 58.3375 30.5888 58.4566 31.6182 58.3271C41.8641 57.0372 49.9027 49.2927 51.3884 39.2844C51.5688 38.0618 51.3194 37.435 49.9186 37.5541C49.0644 37.6267 48.1942 37.4868 48.2685 36.3782C48.3268 35.425 49.1333 35.2593 49.9186 35.3629C51.3566 35.5597 51.5847 34.8915 51.399 33.6948C50.6402 28.7684 48.6346 24.4221 44.9522 20.9461C43.2224 19.3143 44.0661 18.5891 45.6791 16.7345C46.7881 15.455 47.6901 16.605 48.4223 17.3613C55.8083 25.0075 58.4083 33.9849 55.3202 44.0813C52.2851 54.012 45.2281 60.1454 34.9451 62.6941C32.9606 63.1863 30.9284 63.4038 29.2093 63.3054Z" fill="#FFB701"/>
<path d="M29.9734 13.6524C29.9734 14.6159 29.9575 15.5794 29.9788 16.5481C29.9947 17.2734 29.6339 17.75 28.9335 17.7811C28.2225 17.8121 27.8829 17.2837 27.7396 16.631C27.2356 14.3154 27.2302 14.3258 24.8638 14.7713C20.1945 15.6571 16.1725 17.7241 12.8138 21.0187C11.4502 22.3553 10.1873 22.1843 8.569 20.5163C7.34331 19.2471 8.39391 18.4597 9.21103 17.6567C14.2358 12.6888 20.3271 9.9847 27.4637 9.55992C29.9575 9.40969 29.9628 9.46667 29.9841 11.8496C29.9894 12.4505 29.9841 13.0566 29.9841 13.6575C29.9735 13.6524 29.9734 13.6524 29.9734 13.6524Z" fill="#2A2927"/>
<path d="M29.9234 13.4343C29.9234 14.3979 29.9075 15.3614 29.9287 16.3301C29.9446 17.0554 29.5838 17.532 28.8834 17.563C28.1724 17.5941 27.8328 17.0657 27.6896 16.413C27.1855 14.0974 27.1802 14.1078 24.8137 14.5533C20.1444 15.4391 16.1225 17.5061 12.7638 20.8007C11.4001 22.1372 10.1373 21.9663 8.51895 20.2982C7.29326 19.0291 8.34386 18.2417 9.16098 17.4387C14.1858 12.4708 20.2771 9.76669 27.4137 9.3419C29.9075 9.19167 29.9128 9.24865 29.934 11.6316C29.9393 12.2325 29.934 12.8386 29.934 13.4395C29.9234 13.4343 29.9234 13.4343 29.9234 13.4343Z" fill="white"/>
<path fill-rule="evenodd" clip-rule="evenodd" d="M37.5301 12.942C38.0894 11.8098 38.6509 10.6732 39.126 9.54437L39.1261 9.54423C39.1608 9.49775 39.195 9.44943 39.2292 9.40094C39.4774 9.04957 39.732 8.68902 40.2775 8.94849C40.86 9.22304 40.7059 9.68319 40.5573 10.1269L40.5322 10.2021L40.275 10.962C39.8187 12.3095 39.3622 13.6576 38.9245 15.0095L38.9058 15.0675C38.7853 15.4406 38.6402 15.8898 39.1898 16.0818C39.7469 16.2786 39.9485 15.8383 40.1236 15.4498C40.7067 14.1681 41.2844 12.8838 41.8624 11.5987L41.8629 11.5976L41.8634 11.5967C42.1004 11.0697 42.3375 10.5427 42.575 10.0156C43.8697 10.5337 43.8431 11.492 43.6044 12.3571C43.026 14.45 42.3044 16.5014 41.1424 18.3715C40.6065 19.2314 39.8636 19.9981 38.8767 20.1069C37.2743 20.283 36.8498 21.3035 36.3882 22.5416L36.2617 22.8832C34.9191 26.5098 33.5756 30.1388 32.0426 33.6948C31.3899 35.2126 31.5756 35.9638 33.2205 36.2849C34.5046 36.5388 34.7593 37.2847 34.3931 38.4244C33.8891 39.994 33.2046 40.3981 31.6765 39.6521C30.4402 39.046 29.7239 39.0771 29.3896 40.5483C29.0712 41.9522 28.3655 42.5842 26.7313 41.9418C25.0227 41.2684 25.1925 40.2427 25.9035 39.0875C26.657 37.8598 26.4182 37.321 25.0227 36.7615C21.2669 35.2636 17.5684 33.6363 13.8709 32.0095L13.8709 32.0095L12.803 31.5398C11.9752 31.1772 11.3438 30.9285 10.532 31.6538C9.49734 32.5759 8.11777 32.6484 6.83372 32.3738C4.03745 31.7781 1.8726 30.1981 0.508954 27.7426C-0.626532 25.7016 0.185286 23.8108 2.47218 23.1995C5.13579 22.4846 7.75166 22.754 10.15 24.1889C11.2377 24.8417 12.2193 25.8311 12.2671 27.0278C12.329 28.5193 13.2043 28.8394 14.2922 29.2372L14.3842 29.2708L14.7995 29.4225L14.7996 29.4226C18.6459 30.8275 22.4904 32.2317 26.2856 33.7518C27.697 34.3164 28.2541 34.0315 28.8324 32.6639C30.2914 29.2034 31.8726 25.7928 33.4537 22.3826L33.4537 22.3824C33.7069 21.8364 33.9601 21.2903 34.2127 20.744C34.5735 19.967 34.7115 19.3764 33.9687 18.7082C33.4221 18.2161 33.1515 17.4753 33.1781 16.7293C33.3107 13.3673 34.547 10.4508 36.9559 8.0264L36.9561 8.02637C37.9793 8.05654 37.7616 8.58788 37.5201 9.17709L37.4971 9.23337C37.2027 9.95579 36.9189 10.6834 36.6352 11.411L36.6349 11.4116L36.6349 11.4116C36.351 12.1395 36.0671 12.8673 35.7727 13.59C35.7593 13.6226 35.7456 13.6553 35.732 13.6878L35.7318 13.6883C35.5508 14.1204 35.3756 14.5388 35.9477 14.8229C36.4893 15.0922 36.7039 14.6396 36.8647 14.3005L36.8922 14.2427C37.1011 13.8104 37.3154 13.3766 37.53 12.9422L37.5301 12.942ZM29.6017 36.5958C29.6283 36.1814 29.416 35.9483 29.0022 35.8809C28.5989 35.9068 28.3071 36.083 28.2805 36.4922C28.254 36.8963 28.4662 37.1501 28.896 37.1812C29.3205 37.2123 29.5752 37.0206 29.6017 36.5958Z" fill="white"/>
</svg>
