<svg width="107" height="107" viewBox="0 0 107 107" fill="none" xmlns="http://www.w3.org/2000/svg">
<path d="M55.1314 106.846C28.2966 106.706 6.92149 87.3561 3.78187 60.9161C2.87356 53.2461 2.87356 53.2461 10.4659 53.2861C12.4208 53.2961 14.3855 53.2961 16.3404 53.2861C17.6633 53.2761 18.6506 53.8361 18.7987 55.2061C18.9567 56.6461 17.9398 57.5461 16.7155 57.4261C12.1048 56.9761 12.8354 59.6261 13.3784 62.6361C16.7254 81.0261 31.377 94.9561 49.7704 97.2761C52.0313 97.5561 52.752 96.8361 52.6928 94.7661C52.6434 93.1261 52.8705 91.4961 54.9241 91.6161C56.9283 91.7361 57.0567 93.5061 56.9283 95.0461C56.7506 97.2561 57.6984 97.4861 59.6138 97.2361C78.6786 94.7461 93.6362 79.7961 96.4007 60.4761C96.7363 58.1161 96.2723 56.9061 93.6658 57.1361C92.0763 57.2761 90.4571 57.0061 90.5953 54.8661C90.7039 53.0261 92.2046 52.7061 93.6658 52.9061C96.3414 53.2861 96.7659 51.9961 96.4204 49.6861C95.0085 40.1761 91.2766 31.7861 84.4247 25.0761C81.2061 21.9261 82.7759 20.5261 85.7773 16.9461C87.8407 14.4761 89.5192 16.6961 90.8816 18.1561C104.625 32.9161 109.463 50.2461 103.717 69.7361C98.0692 88.9061 84.9381 100.746 65.8042 105.666C62.1116 106.616 58.3303 107.036 55.1314 106.846Z" fill="#F9D343"/>
<path d="M73.5841 3.0661C74.1172 2.3261 74.5714 1.34609 75.7265 1.91609C76.8718 2.47609 76.4868 3.43609 76.2004 4.33609C75.1934 7.42609 74.1764 10.5161 73.2089 13.6161C72.9818 14.3561 72.6264 15.2961 73.7025 15.6861C74.7392 16.0661 75.1144 15.2161 75.4402 14.4661C76.9705 10.9761 78.4811 7.4761 80.0015 3.9761C82.4105 4.9761 82.3612 6.82609 81.9169 8.49609C80.8407 12.5361 79.498 16.4961 77.3358 20.1061C76.3387 21.7661 74.9564 23.2461 73.12 23.4561C70.1384 23.7961 69.3485 25.7661 68.4896 28.1561C65.9127 35.3761 63.3458 42.6061 60.4036 49.6861C59.1892 52.6161 59.5348 54.0661 62.5954 54.6861C64.9847 55.1761 65.4586 56.6161 64.7774 58.8161C63.8394 61.8461 62.5658 62.6261 59.7224 61.1861C57.422 60.0161 56.0891 60.0761 55.4671 62.9161C54.8747 65.6261 53.5616 66.8461 50.5207 65.6061C47.3416 64.3061 47.6575 62.3261 48.9805 60.0961C50.3825 57.7261 49.9382 56.6861 47.3416 55.6061C39.6801 52.4361 32.147 48.9661 24.604 45.5261C23.0639 44.8261 21.889 44.3461 20.3784 45.7461C18.4532 47.5261 15.8862 47.6661 13.4969 47.1361C8.29383 45.9861 4.26564 42.9361 1.72827 38.1961C-0.384553 34.2561 1.12602 30.6061 5.38128 29.4261C10.3375 28.0461 15.2049 28.5661 19.6675 31.3361C21.6915 32.5961 23.518 34.5061 23.6069 36.8161C23.7253 39.7761 25.4432 40.3461 27.5462 41.1461C34.9608 43.9561 42.3755 46.7561 49.6914 49.7961C52.3176 50.8861 53.3543 50.3361 54.4304 47.6961C57.5799 39.9461 61.0355 32.3261 64.4417 24.6861C65.113 23.1861 65.3697 22.0461 63.9875 20.7561C62.9706 19.8061 62.4671 18.3761 62.5164 16.9361C62.7632 10.4461 65.0637 4.81609 69.546 0.136088C71.5206 -0.443912 71.2639 0.946099 71.2343 2.1161C71.1849 4.1661 70.0396 5.8561 69.4473 7.7261C69.0721 8.9261 68.2526 9.98609 68.4106 11.6961C70.6814 8.93609 71.3824 5.5161 73.5841 3.0661Z" fill="#FCF9F4"/>
<path d="M56.5523 10.9964C56.5523 12.8564 56.5227 14.7164 56.5622 16.5864C56.5918 17.9864 55.9204 18.9064 54.6172 18.9664C53.2942 19.0264 52.6623 18.0064 52.3958 16.7464C51.4578 12.2764 51.448 12.2964 47.0446 13.1564C38.3563 14.8664 30.8726 18.8564 24.623 25.2164C22.0856 27.7964 19.7358 27.4664 16.7246 24.2464C14.4439 21.7964 16.3988 20.2764 17.9192 18.7264C27.269 9.13643 38.6032 3.91643 51.8824 3.09643C56.5227 2.80643 56.5326 2.91643 56.5721 7.51643C56.5819 8.67643 56.5721 9.84643 56.5721 11.0064C56.5523 10.9964 56.5523 10.9964 56.5523 10.9964Z" fill="white"/>
</svg>
