<svg width="168" height="78" viewBox="0 0 168 78" fill="none" xmlns="http://www.w3.org/2000/svg">
<path d="M13.2569 67.188C13.0829 67.188 12.9524 67.2275 12.8654 67.3066C12.7785 67.3857 12.735 67.5359 12.735 67.7573V68.1013H13.7313V69.2993H12.735V73.8895H11.1456V67.6624C11.1456 66.6186 11.6358 66.0968 12.6164 66.0968H13.7313V67.188H13.2569ZM18.446 67.3778C18.28 67.5438 18.0783 67.6268 17.8411 67.6268C17.6039 67.6268 17.3983 67.5438 17.2243 67.3778C17.0503 67.2038 16.9634 66.9982 16.9634 66.761C16.9634 66.5158 17.0503 66.3103 17.2243 66.1442C17.3983 65.9702 17.6039 65.8833 17.8411 65.8833C18.0783 65.8833 18.28 65.9702 18.446 66.1442C18.62 66.3103 18.707 66.5158 18.707 66.761C18.707 67.0061 18.62 67.2117 18.446 67.3778ZM17.0464 73.8895V68.1013H18.6358V73.8895H17.0464ZM23.739 73.8895H22.1496V66.2154H23.739V73.8895ZM28.7892 73.8895H27.1998V66.2154H28.7892V73.8895ZM46.9311 68.1013H48.5205V74.3284C48.5205 75.3722 48.0302 75.8941 47.0497 75.8941H45.8636C44.8831 75.8941 44.3928 75.3722 44.3928 74.3284V74.1386H45.9348V74.5182C45.9348 74.5814 45.9545 74.6368 45.9941 74.6842C46.0415 74.7317 46.0969 74.7554 46.1601 74.7554H46.7058C46.769 74.7554 46.8204 74.7317 46.8599 74.6842C46.9074 74.6368 46.9311 74.5814 46.9311 74.5182V73.3439C46.6939 73.5337 46.3697 73.6286 45.9585 73.6286H45.7094C44.7289 73.6286 44.2386 73.1067 44.2386 72.0629V68.1013H45.828V72.2527C45.828 72.3159 45.8478 72.3713 45.8873 72.4187C45.9348 72.4662 45.9901 72.4899 46.0534 72.4899H46.7058C46.769 72.4899 46.8204 72.4662 46.8599 72.4187C46.9074 72.3713 46.9311 72.3159 46.9311 72.2527V68.1013ZM56.2812 69.5483V72.4425C56.2812 73.4862 55.791 74.0081 54.8104 74.0081H53.4701C52.4896 74.0081 51.9993 73.4862 51.9993 72.4425V69.5483C51.9993 68.5046 52.4896 67.9827 53.4701 67.9827H54.8104C55.791 67.9827 56.2812 68.5046 56.2812 69.5483ZM54.6918 72.7746V69.2044C54.6918 69.1411 54.6681 69.0858 54.6207 69.0383C54.5811 68.9909 54.5297 68.9671 54.4665 68.9671H53.8141C53.7508 68.9671 53.6955 68.9909 53.648 69.0383C53.6085 69.0858 53.5887 69.1411 53.5887 69.2044V72.7746C53.5887 72.8378 53.6085 72.8932 53.648 72.9406C53.6955 72.9881 53.7508 73.0118 53.8141 73.0118H54.4665C54.5297 73.0118 54.5811 72.9881 54.6207 72.9406C54.6681 72.8932 54.6918 72.8378 54.6918 72.7746ZM62.4525 68.1013H64.0419V73.8895H62.5949V73.593C62.3497 73.8698 61.9781 74.0081 61.4799 74.0081H61.2308C60.2503 74.0081 59.7601 73.4862 59.7601 72.4425V68.1013H61.3495V72.6322C61.3495 72.6955 61.3692 72.7509 61.4088 72.7983C61.4562 72.8457 61.5116 72.8695 61.5748 72.8695H62.2272C62.2904 72.8695 62.3418 72.8457 62.3814 72.7983C62.4288 72.7509 62.4525 72.6955 62.4525 72.6322V68.1013ZM69.9879 67.9827H70.2963V69.5246H69.5134C69.2446 69.5246 69.1102 69.663 69.1102 69.9398V73.8895H67.5208V68.1013H68.9678V68.6588C69.1971 68.208 69.5372 67.9827 69.9879 67.9827ZM89.9026 72.9762H90.377V74.0081H89.2621C88.2815 74.0081 87.7913 73.4862 87.7913 72.4425V66.844H89.3807V68.1013H90.377V69.2518H89.3807V72.4069C89.3807 72.6283 89.4242 72.7785 89.5111 72.8576C89.5981 72.9367 89.7286 72.9762 89.9026 72.9762ZM96.2985 68.1013H97.8879V73.8895H96.4408V73.593C96.1957 73.8698 95.8241 74.0081 95.3259 74.0081H95.0768C94.0963 74.0081 93.606 73.4862 93.606 72.4425V68.1013H95.1954V72.6322C95.1954 72.6955 95.2152 72.7509 95.2547 72.7983C95.3022 72.8457 95.3575 72.8695 95.4208 72.8695H96.0731C96.1364 72.8695 96.1878 72.8457 96.2273 72.7983C96.2748 72.7509 96.2985 72.6955 96.2985 72.6322V68.1013ZM106.586 67.9827C107.566 67.9827 108.056 68.5046 108.056 69.5483V73.8895H106.467V69.3586C106.467 69.2953 106.443 69.24 106.396 69.1925C106.356 69.1451 106.305 69.1213 106.242 69.1213H105.732C105.668 69.1213 105.613 69.1451 105.566 69.1925C105.526 69.24 105.506 69.2953 105.506 69.3586V73.8895H103.917V69.3586C103.917 69.2953 103.893 69.24 103.846 69.1925C103.806 69.1451 103.755 69.1213 103.692 69.1213H103.181C103.118 69.1213 103.063 69.1451 103.015 69.1925C102.976 69.24 102.956 69.2953 102.956 69.3586V73.8895H101.367V68.1013H102.814V68.3978C103.059 68.1211 103.431 67.9827 103.929 67.9827H104.035C104.621 67.9827 105.028 68.1645 105.257 68.5283C105.502 68.1645 105.91 67.9827 106.479 67.9827H106.586ZM116.825 67.9827C117.806 67.9827 118.296 68.5046 118.296 69.5483V73.8895H116.707V69.3586C116.707 69.2953 116.683 69.24 116.635 69.1925C116.596 69.1451 116.544 69.1213 116.481 69.1213H115.971C115.908 69.1213 115.853 69.1451 115.805 69.1925C115.766 69.24 115.746 69.2953 115.746 69.3586V73.8895H114.156V69.3586C114.156 69.2953 114.133 69.24 114.085 69.1925C114.046 69.1451 113.994 69.1213 113.931 69.1213H113.421C113.358 69.1213 113.302 69.1451 113.255 69.1925C113.215 69.24 113.196 69.2953 113.196 69.3586V73.8895H111.606V68.1013H113.053V68.3978C113.298 68.1211 113.67 67.9827 114.168 67.9827H114.275C114.86 67.9827 115.267 68.1645 115.497 68.5283C115.742 68.1645 116.149 67.9827 116.718 67.9827H116.825ZM123.459 67.3778C123.293 67.5438 123.091 67.6268 122.854 67.6268C122.617 67.6268 122.411 67.5438 122.237 67.3778C122.063 67.2038 121.976 66.9982 121.976 66.761C121.976 66.5158 122.063 66.3103 122.237 66.1442C122.411 65.9702 122.617 65.8833 122.854 65.8833C123.091 65.8833 123.293 65.9702 123.459 66.1442C123.633 66.3103 123.72 66.5158 123.72 66.761C123.72 67.0061 123.633 67.2117 123.459 67.3778ZM122.059 73.8895V68.1013H123.649V73.8895H122.059ZM129.974 67.9827C130.954 67.9827 131.444 68.5046 131.444 69.5483V71.4224H128.752V72.6322C128.752 72.6955 128.772 72.7509 128.811 72.7983C128.859 72.8457 128.914 72.8695 128.977 72.8695H129.63C129.693 72.8695 129.744 72.8457 129.784 72.7983C129.831 72.7509 129.855 72.6955 129.855 72.6322V71.9917H131.444V72.4425C131.444 73.4862 130.954 74.0081 129.974 74.0081H128.633C127.653 74.0081 127.162 73.4862 127.162 72.4425V69.5483C127.162 68.5046 127.653 67.9827 128.633 67.9827H129.974ZM128.752 70.3786H129.855V69.3111C129.855 69.2479 129.831 69.1925 129.784 69.1451C129.744 69.0976 129.693 69.0739 129.63 69.0739H128.977C128.914 69.0739 128.859 69.0976 128.811 69.1451C128.772 69.1925 128.752 69.2479 128.752 69.3111V70.3786ZM137.443 70.26C138.423 70.26 138.913 70.7819 138.913 71.8257V72.4425C138.913 73.4862 138.423 74.0081 137.443 74.0081H136.126C135.146 74.0081 134.655 73.4862 134.655 72.4425V72.0748H136.126V72.5967C136.126 72.6599 136.146 72.7153 136.185 72.7627C136.233 72.8102 136.288 72.8339 136.351 72.8339H137.324C137.387 72.8339 137.439 72.8102 137.478 72.7627C137.526 72.7153 137.549 72.6599 137.549 72.5967V71.885C137.549 71.8217 137.526 71.7664 137.478 71.7189C137.439 71.6715 137.387 71.6478 137.324 71.6478H136.102C135.122 71.6478 134.632 71.1259 134.632 70.0821V69.5483C134.632 68.5046 135.122 67.9827 136.102 67.9827H137.348C138.328 67.9827 138.819 68.5046 138.819 69.5483V69.7618H137.348V69.3942C137.348 69.3309 137.324 69.2755 137.277 69.2281C137.237 69.1807 137.186 69.1569 137.122 69.1569H136.221C136.158 69.1569 136.102 69.1807 136.055 69.2281C136.015 69.2755 135.996 69.3309 135.996 69.3942V70.0228C135.996 70.0861 136.015 70.1414 136.055 70.1888C136.102 70.2363 136.158 70.26 136.221 70.26H137.443Z" fill="white"/>
<path d="M91.4968 12.4032C96.3005 12.4032 98.7024 14.96 98.7024 20.0737V42.3296C98.7024 47.4432 96.3005 50 91.4968 50H76.5627V12.4032H91.4968ZM90.5671 43.2593V19.0858C90.5671 18.7759 90.4508 18.5047 90.2184 18.2723C90.0247 18.0398 89.7729 17.9236 89.463 17.9236H84.698V44.4215H89.463C89.7729 44.4215 90.0247 44.3053 90.2184 44.0728C90.4508 43.8404 90.5671 43.5692 90.5671 43.2593ZM119.7 11.8221C124.504 11.8221 126.906 14.3789 126.906 19.4926V50H118.771V37.3903H112.901V50H104.766V19.4926C104.766 14.3789 107.168 11.8221 111.972 11.8221H119.7ZM112.901 31.1144H118.771V18.5047C118.771 18.1948 118.654 17.9236 118.422 17.6912C118.228 17.4587 117.976 17.3425 117.666 17.3425H114.006C113.696 17.3425 113.424 17.4587 113.192 17.6912C112.998 17.9236 112.901 18.1948 112.901 18.5047V31.1144ZM154.761 12.4032L146.683 36.2862V50H138.548V36.2862L130.471 12.4032H138.141L142.616 28.0928L147.09 12.4032H154.761Z" fill="#FFFBFB"/>
<path d="M71.9656 30.4604H68.0292V15.3614C68.0292 15.2114 67.9729 15.0802 67.8605 14.9677C67.7667 14.8553 67.6449 14.799 67.4949 14.799H65.9766C65.8266 14.799 65.6954 14.8553 65.583 14.9677C65.4892 15.0802 65.4424 15.2114 65.4424 15.3614V30.4604H61.5059V15.6988C61.5059 13.2245 62.6681 11.9873 64.9925 11.9873H68.479C70.8034 11.9873 71.9656 13.2245 71.9656 15.6988V30.4604Z" fill="#FFB701"/>
<path d="M65.7943 51.8152H70.7625V55.5333H61.307V34.7954H70.7625V38.4494H65.7943V43.3213H70.4419V46.8471H65.7943V51.8152Z" fill="#FFB701"/>
<path d="M29.2093 61.7227C14.7875 61.652 3.30002 51.8787 1.61271 38.5244C1.12455 34.6505 1.12456 34.6505 5.20488 34.6707C6.25547 34.6757 7.31136 34.6757 8.36195 34.6707C9.07296 34.6656 9.60356 34.9485 9.68315 35.6404C9.76805 36.3677 9.22153 36.8223 8.56358 36.7617C6.08568 36.5344 6.47832 37.8729 6.77015 39.3932C8.56889 48.6816 16.443 55.7173 26.3281 56.8891C27.5432 57.0305 27.9305 56.6669 27.8987 55.6213C27.8721 54.793 27.9942 53.9697 29.0978 54.0303C30.175 54.091 30.2439 54.985 30.175 55.7628C30.0795 56.879 30.5888 56.9952 31.6182 56.8689C41.8641 55.6112 49.9027 48.0603 51.3884 38.3022C51.5688 37.1102 51.3194 36.4991 49.9186 36.6152C49.0644 36.6859 48.1942 36.5496 48.2685 35.4687C48.3268 34.5393 49.1333 34.3777 49.9186 34.4787C51.3566 34.6707 51.5847 34.0191 51.399 32.8524C50.6402 28.0491 48.6346 23.8115 44.9522 20.4224C43.2224 18.8314 44.0661 18.1243 45.6791 16.3161C46.7881 15.0685 47.6901 16.1898 48.4223 16.9272C55.8083 24.3822 58.4083 33.1352 55.3202 42.9792C52.2851 52.6616 45.2281 58.6417 34.9451 61.1267C32.9606 61.6065 30.9284 61.8187 29.2093 61.7227Z" fill="#FFB701"/>
<path d="M29.9734 13.311C29.9734 14.2505 29.9575 15.1899 29.9788 16.1344C29.9947 16.8415 29.6339 17.3062 28.9335 17.3365C28.2225 17.3668 27.8829 16.8516 27.7396 16.2152C27.2356 13.9575 27.2302 13.9676 24.8638 14.402C20.1945 15.2657 16.1725 17.281 12.8138 20.4933C11.4502 21.7964 10.1873 21.6297 8.569 20.0033C7.34331 18.7659 8.39391 17.9982 9.21103 17.2153C14.2358 12.3716 20.3271 9.73507 27.4637 9.32091C29.9575 9.17444 29.9628 9.22999 29.9841 11.5534C29.9894 12.1392 29.9841 12.7302 29.9841 13.3161C29.9735 13.311 29.9734 13.311 29.9734 13.311Z" fill="#2A2927"/>
<path d="M29.9234 13.0985C29.9234 14.038 29.9075 14.9774 29.9287 15.9219C29.9446 16.629 29.5838 17.0937 28.8834 17.124C28.1724 17.1543 27.8328 16.6391 27.6896 16.0027C27.1855 13.745 27.1802 13.7551 24.8137 14.1895C20.1444 15.0532 16.1225 17.0684 12.7638 20.2807C11.4001 21.5838 10.1373 21.4172 8.51895 19.7908C7.29326 18.5534 8.34386 17.7856 9.16098 17.0028C14.1858 12.1591 20.2771 9.52255 27.4137 9.10838C29.9075 8.96191 29.9128 9.01747 29.934 11.3408C29.9393 11.9267 29.934 12.5177 29.934 13.1036C29.9234 13.0985 29.9234 13.0985 29.9234 13.0985Z" fill="white"/>
<path fill-rule="evenodd" clip-rule="evenodd" d="M37.53 12.6184C38.0893 11.5146 38.6508 10.4064 39.1258 9.30584L39.1261 9.30555C39.1608 9.26022 39.195 9.21312 39.2292 9.16584C39.4774 8.82325 39.732 8.47172 40.2775 8.7247C40.86 8.99239 40.7059 9.44103 40.5573 9.87368L40.5322 9.94699L40.275 10.6878L40.275 10.6879C39.8187 12.0017 39.3622 13.3161 38.9245 14.6341L38.9058 14.6907C38.7853 15.0545 38.6402 15.4925 39.1898 15.6796C39.7469 15.8716 39.9485 15.4423 40.1236 15.0634C40.7063 13.8146 41.2837 12.5632 41.8614 11.311L41.8629 11.3076L41.8632 11.3069C42.1003 10.7931 42.3374 10.2791 42.575 9.76517C43.8697 10.2703 43.8431 11.2046 43.6044 12.0481C43.026 14.0886 42.3044 16.0888 41.1424 17.9121C40.6065 18.7505 39.8636 19.498 38.8767 19.6041C37.2743 19.7758 36.8498 20.7708 36.3882 21.978L36.2617 22.3111C34.9191 25.8469 33.5756 29.3853 32.0426 32.8523C31.3899 34.3322 31.5756 35.0646 33.2205 35.3777C34.5046 35.6252 34.7593 36.3525 34.3931 37.4637C33.8891 38.9941 33.2046 39.3881 31.6765 38.6608C30.4402 38.0698 29.7239 38.1001 29.3896 39.5345C29.0712 40.9033 28.3655 41.5195 26.7313 40.8932C25.0227 40.2366 25.1925 39.2365 25.9035 38.1102C26.657 36.9132 26.4182 36.3879 25.0227 35.8424C21.2668 34.3819 17.5684 32.7953 13.8709 31.2092L12.803 30.7512C11.9752 30.3977 11.3438 30.1552 10.532 30.8623C9.49734 31.7614 8.11777 31.8321 6.83372 31.5644C4.03745 30.9836 1.8726 29.4431 0.508954 27.049C-0.626532 25.059 0.185286 23.2154 2.47218 22.6194C5.13579 21.9224 7.75166 22.1851 10.15 23.5841C11.2377 24.2205 12.2193 25.1852 12.2671 26.352C12.329 27.8063 13.2043 28.1183 14.2922 28.5062L14.3842 28.539L14.7995 28.6869L14.7996 28.6869C18.6459 30.0567 22.4904 31.4258 26.2856 32.9079C27.697 33.4584 28.2541 33.1806 28.8324 31.8472C30.2914 28.4732 31.8726 25.1479 33.4537 21.8228L33.4577 21.8144C33.7096 21.2848 33.9614 20.7552 34.2127 20.2254C34.5735 19.4677 34.7115 18.892 33.9687 18.2404C33.4221 17.7606 33.1515 17.0383 33.1781 16.311C33.3107 13.033 34.547 10.1895 36.9559 7.82568C37.9792 7.8551 37.7615 8.37316 37.52 8.94764L37.497 9.00252C37.2026 9.70687 36.9188 10.4163 36.6351 11.1257L36.6348 11.1263C36.3509 11.836 36.067 12.5456 35.7725 13.2502C35.7591 13.2822 35.7454 13.3142 35.7317 13.3461C35.5507 13.7673 35.3755 14.1753 35.9476 14.4523C36.4892 14.7149 36.7038 14.2736 36.8646 13.943L36.8921 13.8866C37.1011 13.465 37.3154 13.042 37.53 12.6184ZM29.6016 35.6809C29.6282 35.2768 29.4159 35.0495 29.0021 34.9839C28.5988 35.0091 28.307 35.1809 28.2804 35.5799C28.2539 35.9738 28.4662 36.2213 28.8959 36.2516C29.3204 36.2819 29.5751 36.0951 29.6016 35.6809Z" fill="white"/>
</svg>
